<svg fill="#7e5f40" height="512pt" viewBox="-46 0 512 512" width="512pt" xmlns="http://www.w3.org/2000/svg"><path d="m285.003906 330h-255v137c0 24.8125 20.1875 45 45 45h120c19.53125 0 36.023438-12.578125 42.238282-30h32.761718c20.683594 0 38.644532-14.019531 43.652344-34.085938l15-62c7.101562-28.394531-14.351562-55.914062-43.652344-55.914062zm14.5625 48.648438-15 61.984374c-1.6875 6.691407-7.664062 11.367188-14.5625 11.367188h-30v-92h45c9.730469 0 16.933594 9.152344 14.5625 18.648438zm0 0"/><path d="m405.003906 0h-45v150h45c8.292969 0 15-6.710938 15-15v-120c0-8.289062-6.707031-15-15-15zm0 0"/><path d="m240.003906 300v-105c0-8.289062-6.707031-15-15-15h-45v68.789062l51.210938 51.210938zm0 0"/><path d="m120.003906 120v120h30v-68.34375c-17.847656-10.40625-30-29.542969-30-51.65625zm0 0"/><path d="m45.003906 180c-8.289062 0-15 6.710938-15 15v105h8.789063l51.210937-51.210938v-68.789062zm0 0"/><path d="m158.792969 270h-47.578125l-30 30h107.578125zm0 0"/><path d="m141.917969 62.707031c2.519531-1.761719 5.519531-2.707031 8.59375-2.707031h104.492187c8.292969 0 15 6.710938 15 15s-6.707031 15-15 15h-75c-16.570312 0-30 13.429688-30 30 0 16.566406 13.429688 30 30 30h68.324219c10.390625 8.929688 29.527344 15 51.675781 15 8.832032 0 19.820313-1.441406 30-4.363281v-160.636719c-112.996094 0-173.414062 0-193.644531 0-6.152344 0-12.160156 1.894531-17.203125 5.421875l-106.253906 74.378906c-14.472656 10.335938-16.46875 29.730469-7.5 41.699219 9.601562 13.800781 28.203125 17.097656 41.703125 7.5 20.070312-14.035156 72.234375-50.503906 94.8125-66.292969zm0 0"/></svg>