<svg fill="#7e5f40" height="512pt" viewBox="-31 0 512 512.00063" width="512pt" xmlns="http://www.w3.org/2000/svg"><path d="m79.566406 122.4375c-31.421875-10.855469-65.515625 5.929688-76.285156 37.242188-10.773438 31.289062 5.9375 65.511718 36.125 75.859374l12.378906 5.398438 53.546875-107.101562zm0 0"/><path d="m72.617188 412.058594c-22.027344 24.757812-19.84375 62.707031 4.957031 84.742187 24.835937 22.078125 62.738281 19.835938 84.753906-4.96875l8.976563-10.09375-88.730469-80.878906zm0 0"/><path d="m409.074219 237.210938c31.375-10.792969 48.046875-44.902344 37.242187-76.285157-10.421875-30.347656-43.539062-48.582031-77.488281-36.773437l-22.007813 9.773437 53.550782 107.105469zm0 0"/><path d="m372.007812 496.800781c24.714844-21.9375 27.105469-59.847656 4.984376-84.742187l-8.832032-9.949219-88.746094 80.890625 7.855469 8.832031c22.003907 24.792969 59.964844 27.019531 84.738281 4.96875zm0 0"/><path d="m224.804688 421.585938 34.660156 38.976562 88.765625-80.90625-34.214844-38.546875-3.398437-60.664063 62.230468-27.328124-51.5-103.011719c6.292969-13.582031 9.757813-28.5625 9.757813-44.050781 0-57.921876-47.132813-106.054688-105.054688-106.054688s-105.054687 48.132812-105.054687 106.054688c0 15.617187 3.476562 30.570312 9.726562 44.125l-51.386718 102.773437 62.03125 27.050781-5.4375 60.84375-33.40625 37.570313 88.734374 80.882812zm16.253906-120.433594h-30.015625v-30.015625h30.015625zm0-210.105469h30.015625v30.015625h-30.015625zm0 120.0625v30.011719h-30.015625v-30.011719zm-60.03125-120.0625h30.015625v30.015625h-30.015625zm0 0"/></svg>